HIERARCHY
ROOT Hips
{
	OFFSET -14.64140 90.27770 -84.91600
	CHANNELS 6 Xposition Yposition Zposition Zrotation Xrotation Yrotation
	JOINT Spine
	{
		OFFSET 0.00000 13.20850 -1.60436
		CHANNELS 3 Zrotation Xrotation Yrotation
		JOINT Spine1
		{
			OFFSET 0.00000 8.61716 0.00000
			CHANNELS 3 Zrotation Xrotation Yrotation
			JOINT Spine2
			{
				OFFSET 0.00000 8.61717 0.00000
				CHANNELS 3 Zrotation Xrotation Yrotation
				JOINT Spine3
				{
					OFFSET 0.00000 8.61717 0.00000
					CHANNELS 3 Zrotation Xrotation Yrotation
					JOINT Neck
					{
						OFFSET 0.00000 11.07920 1.10792
						CHANNELS 3 Zrotation Xrotation Yrotation
						JOINT Neck1
						{
							OFFSET 0.00000 7.08032 0.00000
							CHANNELS 3 Zrotation Xrotation Yrotation
							JOINT Head
							{
								OFFSET 0.00000 7.08031 0.00000
								CHANNELS 3 Zrotation Xrotation Yrotation
								End site
								{
									OFFSET 0.00000 0.00000 0.00000
								}
							}
						}
					}
					JOINT RightShoulder
					{
						OFFSET -0.01000 7.91373 5.19711
						CHANNELS 3 Zrotation Xrotation Yrotation
						JOINT RightArm
						{
							OFFSET -18.41580 0.00000 0.00000
							CHANNELS 3 Zrotation Xrotation Yrotation
							JOINT RightForeArm
							{
								OFFSET -29.11090 0.00000 0.00000
								CHANNELS 3 Zrotation Xrotation Yrotation
								JOINT RightHand
								{
									OFFSET -24.65040 0.00000 0.00000
									CHANNELS 3 Zrotation Xrotation Yrotation
									JOINT RightHandThumb1
									{
										OFFSET -5.35114 -0.85590 3.97906
										CHANNELS 3 Zrotation Xrotation Yrotation
										JOINT RightHandThumb2
										{
											OFFSET -4.52789 0.00000 0.00000
											CHANNELS 3 Zrotation Xrotation Yrotation
											JOINT RightHandThumb3
											{
												OFFSET -2.46976 0.00000 0.00000
												CHANNELS 3 Zrotation Xrotation Yrotation
												End site
												{
													OFFSET 0.00000 0.00000 0.00000
												}
											}
										}
									}
									JOINT RightHandIndex1
									{
										OFFSET -14.26970 0.00000 2.88139
										CHANNELS 3 Zrotation Xrotation Yrotation
										JOINT RightHandIndex2
										{
											OFFSET -5.48836 0.00000 0.00000
											CHANNELS 3 Zrotation Xrotation Yrotation
											JOINT RightHandIndex3
											{
												OFFSET -3.01859 0.00000 0.00000
												CHANNELS 3 Zrotation Xrotation Yrotation
												End site
												{
													OFFSET 0.00000 0.00000 0.00000
												}
											}
										}
									}
									JOINT RightHandMiddle1
									{
										OFFSET -14.26970 0.00000 -0.09147
										CHANNELS 3 Zrotation Xrotation Yrotation
										JOINT RightHandMiddle2
										{
											OFFSET -6.17441 0.00000 0.00000
											CHANNELS 3 Zrotation Xrotation Yrotation
											JOINT RightHandMiddle3
											{
												OFFSET -3.56743 0.00000 0.00000
												CHANNELS 3 Zrotation Xrotation Yrotation
												End site
												{
													OFFSET 0.00000 0.00000 0.00000
												}
											}
										}
									}
									JOINT RightHandRing1
									{
										OFFSET -12.69180 0.00000 -3.06433
										CHANNELS 3 Zrotation Xrotation Yrotation
										JOINT RightHandRing2
										{
											OFFSET -5.62556 0.00000 0.00000
											CHANNELS 3 Zrotation Xrotation Yrotation
											JOINT RightHandRing3
											{
												OFFSET -3.56744 0.00000 0.00000
												CHANNELS 3 Zrotation Xrotation Yrotation
												End site
												{
													OFFSET 0.00000 0.00000 0.00000
												}
											}
										}
									}
									JOINT RightHandPinky1
									{
										OFFSET -11.11390 0.00000 -6.03719
										CHANNELS 3 Zrotation Xrotation Yrotation
										JOINT RightHandPinky2
										{
											OFFSET -4.52789 0.00000 0.00000
											CHANNELS 3 Zrotation Xrotation Yrotation
											JOINT RightHandPinky3
											{
												OFFSET -2.46976 0.00000 0.00000
												CHANNELS 3 Zrotation Xrotation Yrotation
												End site
												{
													OFFSET 0.00000 0.00000 0.00000
												}
											}
										}
									}
								}
							}
						}
					}
					JOINT LeftShoulder
					{
						OFFSET 0.01000 7.91373 5.19711
						CHANNELS 3 Zrotation Xrotation Yrotation
						JOINT LeftArm
						{
							OFFSET 18.41580 0.00000 0.00000
							CHANNELS 3 Zrotation Xrotation Yrotation
							JOINT LeftForeArm
							{
								OFFSET 29.11090 0.00000 0.00000
								CHANNELS 3 Zrotation Xrotation Yrotation
								JOINT LeftHand
								{
									OFFSET 24.65040 0.00000 0.00000
									CHANNELS 3 Zrotation Xrotation Yrotation
									JOINT LeftHandThumb1
									{
										OFFSET 5.35114 -0.85590 3.97906
										CHANNELS 3 Zrotation Xrotation Yrotation
										JOINT LeftHandThumb2
										{
											OFFSET 4.52789 0.00000 0.00000
											CHANNELS 3 Zrotation Xrotation Yrotation
											JOINT LeftHandThumb3
											{
												OFFSET 2.46977 0.00000 0.00000
												CHANNELS 3 Zrotation Xrotation Yrotation
												End site
												{
													OFFSET 0.00000 0.00000 0.00000
												}
											}
										}
									}
									JOINT LeftHandIndex1
									{
										OFFSET 14.26970 0.00000 2.88139
										CHANNELS 3 Zrotation Xrotation Yrotation
										JOINT LeftHandIndex2
										{
											OFFSET 5.48836 0.00000 0.00000
											CHANNELS 3 Zrotation Xrotation Yrotation
											JOINT LeftHandIndex3
											{
												OFFSET 3.01859 0.00000 0.00000
												CHANNELS 3 Zrotation Xrotation Yrotation
												End site
												{
													OFFSET 0.00000 0.00000 0.00000
												}
											}
										}
									}
									JOINT LeftHandMiddle1
									{
										OFFSET 14.26970 0.00000 -0.09147
										CHANNELS 3 Zrotation Xrotation Yrotation
										JOINT LeftHandMiddle2
										{
											OFFSET 6.17440 0.00000 0.00000
											CHANNELS 3 Zrotation Xrotation Yrotation
											JOINT LeftHandMiddle3
											{
												OFFSET 3.56744 0.00000 0.00000
												CHANNELS 3 Zrotation Xrotation Yrotation
												End site
												{
													OFFSET 0.00000 0.00000 0.00000
												}
											}
										}
									}
									JOINT LeftHandRing1
									{
										OFFSET 12.69180 0.00000 -3.06433
										CHANNELS 3 Zrotation Xrotation Yrotation
										JOINT LeftHandRing2
										{
											OFFSET 5.62556 0.00000 0.00000
											CHANNELS 3 Zrotation Xrotation Yrotation
											JOINT LeftHandRing3
											{
												OFFSET 3.56744 0.00000 0.00000
												CHANNELS 3 Zrotation Xrotation Yrotation
												End site
												{
													OFFSET 0.00000 0.00000 0.00000
												}
											}
										}
									}
									JOINT LeftHandPinky1
									{
										OFFSET 11.11390 0.00000 -6.03719
										CHANNELS 3 Zrotation Xrotation Yrotation
										JOINT LeftHandPinky2
										{
											OFFSET 4.52789 0.00000 0.00000
											CHANNELS 3 Zrotation Xrotation Yrotation
											JOINT LeftHandPinky3
											{
												OFFSET 2.46976 0.00000 0.00000
												CHANNELS 3 Zrotation Xrotation Yrotation
												End site
												{
													OFFSET 0.00000 0.00000 0.00000
												}
											}
										}
									}
								}
							}
						}
					}
					JOINT pCube4
					{
						OFFSET 0.00000 10.91090 1.10792
						CHANNELS 3 Zrotation Xrotation Yrotation
						End site
						{
							OFFSET 0.00000 0.00000 0.00000
						}
					}
				}
			}
		}
	}
	JOINT RightUpLeg
	{
		OFFSET -9.98441 0.00000 0.00000
		CHANNELS 3 Zrotation Xrotation Yrotation
		JOINT RightLeg
		{
			OFFSET 0.00000 -42.11790 0.00000
			CHANNELS 3 Zrotation Xrotation Yrotation
			JOINT RightFoot
			{
				OFFSET 0.00000 -45.00020 -0.00001
				CHANNELS 3 Zrotation Xrotation Yrotation
				JOINT RightForeFoot
				{
					OFFSET 0.00000 -3.74820 0.00000
					CHANNELS 3 Zrotation Xrotation Yrotation
					JOINT RightToeBase
					{
						OFFSET 0.00000 0.06325 14.43120
						CHANNELS 3 Zrotation Xrotation Yrotation
						End site
						{
							OFFSET 0.00000 0.00000 0.00000
						}
					}
				}
			}
		}
	}
	JOINT LeftUpLeg
	{
		OFFSET 9.98441 0.00000 0.00000
		CHANNELS 3 Zrotation Xrotation Yrotation
		JOINT LeftLeg
		{
			OFFSET 0.00000 -42.11800 0.00000
			CHANNELS 3 Zrotation Xrotation Yrotation
			JOINT LeftFoot
			{
				OFFSET 0.00000 -45.00070 0.00000
				CHANNELS 3 Zrotation Xrotation Yrotation
				JOINT LeftForeFoot
				{
					OFFSET 0.00000 -3.74824 0.00000
					CHANNELS 3 Zrotation Xrotation Yrotation
					JOINT LeftToeBase
					{
						OFFSET 0.00000 0.06325 14.43110
						CHANNELS 3 Zrotation Xrotation Yrotation
						End site
						{
							OFFSET 0.00000 0.00000 0.00000
						}
					}
				}
			}
		}
	}
}
MOTION
Frames: 4
Frame Time: 0.050000
0.00023872758770715195 0.016060355086588634 -0.019221176975502036 0.009530497587402903 0.010016970140153417 0.00786476978585529 -4.010573351509566 0.731046665445893 -0.7232866869478223 -1.0880278725315777 3.584969484060232 0.41313853293762015 -1.2348798055058392 -2.4154371666190455 -2.257614601676803 -1.5802946012582852 0.21956994073940717 -0.8603495171584302 -1.333040289982537 13.218039805038702 5.1593359951774564 0.4304301769687448 -0.1556771330326332 12.318334389385083 -1.0088299325620005 -15.571889363651758 0.9410232883908365 -6.461263926743221 2.4516398578236913 -15.428895471202628 68.20755372591316 13.85498455016664 -2.6713675107315478 -11.465831882295712 -2.566867766079466 90.44786628017002 25.865566787161725 -0.6348247007208612 -6.4728420693410476 4.497192563845244 -0.13305074401461317 -1.6062973096095454 0.006486523853555268 -0.009554020368391156 -56.25718939421482 -0.02969656559245242 -0.008088179635295852 -56.23460002470336 -38.79837169881133 -0.03161592148506189 0.018011588643705657 -0.01906802622453161 0.0323749200085835 -0.002530679297038974 -0.02719349178970392 -0.03895006551038637 0.00493521457397578 -36.72647352135984 -0.020956773721454647 0.02868390296799452 -0.0007611556245357595 0.035191735135112784 0.04136873009102102 0.02203771305054175 0.004973946774509667 0.023038074939113536 -19.765742740757076 -0.012125251447402839 -0.04206621681143418 0.035419420320343564 0.0431773443631076 -0.016768713669254517 -0.02973203437747017 -0.0009569631548326897 -0.030888482078543528 24.050705549116138 -0.035909247119185445 0.025486783282161078 28.851210850388522 -0.028819904151198086 -0.030856699508631912 28.91499724504004 -0.002170850898580304 -0.04588029088756487 9.423467199687034 2.0493219723431984 12.909157580719347 -70.81468308409914 31.156383359014782 -9.447756278742958 -12.730972393926297 -9.659627522396413 -64.55174165224611 -12.548725943343461 -2.8713200088137714 3.7829739664814404 -0.4714617065205348 0.0664163673358809 -8.126765597316924 0.033215689888838974 0.0273456651588739 44.561443902370264 0.028845332098209005 0.01675416268491401 44.5588037711323 12.496571262694294 0.007882055182739982 -0.0004361830804231197 -0.0023159178275103456 0.005879246727156991 0.0038553164973973556 -0.04483243440915196 0.023928524330115337 -0.025506101698532964 11.090055652468383 0.025183797722977533 0.039542187887850785 0.01908849224680754 -0.04899088588234766 0.028670110548179417 -0.000747725009091845 0.01132598935868186 -0.022957384838788866 4.771229118617404 -0.023585012235833043 0.031162059952400175 0.005073245957919404 -0.04212484762710083 -0.0295996835097094 -0.04791349019226997 -0.006822470118271139 -0.014832321668165158 -5.5987352617059924 0.006413123432844188 -0.021728818677446894 -6.751252785280507 0.01610805542069045 -0.01936829217423865 -6.748510286495968 -0.029231430085044835 -0.032906073706049345 0.035038505481365105 0.044995126456964504 -0.04885599194244889 8.086524461927226 3.4634767422613066 -19.24985631069627 -0.012095449619654674 10.396102102816045 0.06099832815651304 -5.646256899513202 -15.636730306637627 3.1630637461388265 -0.0211920465171539 0.044470151501894435 -0.01676804036089962 -0.0034187612669531837 4.717355121779121 -0.04791551976967103 12.48665883658122 -8.208543098725386 6.9078731892377565 -0.019220406559454558 46.39310846275557 0.0077989637464380476 -4.350117003873668 -14.776555957020424 -3.8441003622362904 -0.02352119396523187 0.007434792455585954 0.001495805289384178 0.00545938604245072 -10.74786344235176 0.041157296387756254 
-0.003144740612882513 -0.026343148957653696 0.007424799618366614 -0.01666523765014929 -0.021806446335895815 0.006544237366891803 -3.671085218666081 0.5826168652197884 -0.7526771165577442 -1.0857532215136427 3.4985649032433157 0.37571054539092635 -1.2150578310817763 -2.3710506584574307 -2.2685214191972083 -1.4861926262198288 0.2087085208350692 -0.9530778854290615 -1.3815322905701717 13.306499001780711 5.181624475474599 0.38275029255062304 0.07340946784058855 12.377060173680343 -1.0917668171434405 -15.152420169942799 0.9753910245705331 -6.455532617709274 2.457114620183074 -15.44700282373236 67.53782027309154 14.94473103787707 -2.2042763593054 -14.777464719031077 -2.9216270378745572 91.20296215423657 26.0070130176475 -0.5490244951823996 -6.839907494726442 4.575801271587675 -0.16967231343820277 -1.5596911159771725 0.024703020155194134 0.002315824110716798 -56.197193101298936 -0.031061618509103515 0.0015731537316406665 -56.22378124226777 -38.745291845987644 0.036047565049474706 0.010561228556494532 0.0028346270031010456 0.04898443479788294 -0.02610469076093948 -0.011207046064465764 -0.015811761837033728 0.015967885670860757 -36.726443318822334 0.04883275394488186 -0.043983416624400216 -0.0019513301548299202 -0.011874488502766886 -0.032314461439597986 0.014544495238468819 0.031325738765076834 0.01490480464375219 -19.71324452294474 0.035234431612912655 -0.02555183773699376 -0.012426201920453761 0.015973409585728366 -0.00852258063369011 -0.014637968510316991 -0.030791626186473162 -0.039381945482968785 24.098045233462148 0.02161251638653475 -0.018509206643346144 28.899051040459153 0.030453529839675902 0.017730157715991124 28.893291700589263 0.01068369624937708 -0.023760618615358036 9.648664501692156 2.145071474285438 12.869004594186888 -70.66735944751989 30.545709986889225 -10.836703893629116 -12.325946857169352 -10.930864283995428 -65.29097897041395 -12.552232050298645 -3.611456281138835 4.230513713763925 -0.5011848654083757 0.045544850793395056 -8.082119440462614 0.04959420499696019 0.016329707207283526 44.585879867522 -0.007856703304086103 0.037252580935630705 44.61615222795994 12.448340488989817 0.036161074639503445 0.03004594527637308 0.020127744904074575 0.030244728700425466 0.011537459294927003 0.03455485514740151 0.013846507582509111 0.04387161800116709 11.10917728539279 -0.04714231741771857 -0.043384865222615164 -0.013004960759852292 0.03409522617929437 -0.04068117184360414 -0.018824157545695816 0.00016560895697190968 0.03848698359234076 4.790915042841744 -0.03543378100150087 0.019839335067543675 -0.014947960204730765 0.038109065743317704 -0.015984051969354138 0.0037525269086444322 -0.03843578228898501 -0.04192739759368997 -5.614997379481309 -0.0055798342785265695 -0.015151257971157302 -6.721987326055683 -0.013481841778835837 -0.017775966759874445 -6.7224947846592205 0.047103885494363305 0.03107644257501749 0.019276117446832382 -0.013629435126696319 -0.007184408941606477 8.037806988690134 3.529592689952125 -19.259485972677105 0.022902832072118594 10.367833820031022 0.014844833400305586 -5.613222953954856 -15.69951633027064 3.2014503598478994 -0.007042049258857848 0.01022490431709668 -0.009618298746759275 0.006896553765842374 4.6518992062688165 -0.04448878721961833 12.414198986540177 -8.242903431956718 6.912387112972542 -0.006520321172170548 46.39922942111539 0.013797948933745705 -4.283870526830267 -14.777829989682242 -3.828850200422804 0.010983749097512052 0.010527123240569399 -0.008319298264188892 0.004970949702766407 -10.728668143927075 0.04393634242162135 
-0.010885750252798684 0.0026106944854630163 -0.04481254004945897 0.019659883890513763 7.081507813480961e-05 0.020180234226858954 -3.373688643917916 0.5330363449382657 -0.7796940769888423 -1.0759496577450325 3.517926312094798 0.32066658111979196 -1.1952533864619612 -2.357980105758444 -2.2849257743602602 -1.4638397610523286 0.1861260908041349 -0.8937977418428753 -1.258077675024289 13.343366080402228 4.832848536824495 0.39811868086256036 0.24181936839168935 11.64204325763225 -1.0420433819176342 -14.813034525658432 0.9687667469884814 -6.422054634086054 2.469957864145102 -15.36630311498044 66.99598728793681 16.324342662535265 -1.5286962843016256 -17.545103996170393 -2.974816975299071 91.8370809282311 26.22092518093924 -0.5610695990943823 -7.153127477371426 4.571618412194977 -0.13142971811415854 -1.6113970278120018 0.023077232022513227 -0.027922172599235393 -56.26223504177583 -0.0010265605953784166 0.04734045823394878 -56.27187404332382 -38.80255012926642 0.047233193177164234 -0.00452078444977472 0.01024427320833179 -0.04174355512841813 0.02415250605406439 0.0009808068881794203 0.0018813181156076607 0.03016774857441576 -36.72685856216643 0.02484076792850365 0.01702341147707105 -0.02184262834726029 -0.029482123483663813 0.019513833798900322 0.009701399422369068 -0.044481168507659506 0.021922715624839825 -19.785895074717356 -0.017976283366712722 -0.021412223825364812 0.011821155374592999 0.01290011195368787 0.029416382126557294 -0.03357338675486491 0.03590439070348859 0.042174763739647306 24.034321516065816 -0.002013456067417172 0.003658797190323699 28.876099733364537 0.00788973545470439 0.03903547255779052 28.913800969916082 -0.039883223471775434 -0.0241854759354727 9.578002306127406 2.126935455948904 12.850715722864475 -70.39921858832278 30.31797154544086 -11.514562830082118 -12.418697490229222 -11.166994869247727 -66.34955355441626 -13.10979684015017 -4.311969032404371 4.764315067670454 -0.4841593584113516 0.10418032692480833 -8.129017246623956 -0.013908581945060842 -0.029648750583393856 44.606820624103364 0.024990051534506064 0.03973694700109231 44.60456373128786 12.456134819096784 -0.04378651388427975 -0.021880757569158003 0.03657517880699866 -0.0223514284666304 -0.038304304217200574 3.2333553274594796e-05 -0.029390586505750937 0.04965236679250829 11.115781636804803 0.024516979851937175 0.0021445638878957616 -0.04361233207741094 -0.04733188092797992 -0.04800528373805151 0.048464185406260595 0.04042557476631924 -0.04696041479099897 4.764868787749378 0.004143798327678514 -0.02525148251249511 -0.0398719916538478 0.006581899143052247 0.0035203326958289866 -0.04314531550531415 0.012387366698100503 0.027213914934063953 -5.624661221336383 -0.042845362356466084 0.030545881322839825 -6.732141031174391 0.007453519168241357 -0.03894991735396994 -6.716662273511726 -0.04203882563556012 -0.014628031682443584 -0.04385151669139134 -0.010922681478200538 0.024512196145590203 8.009608167491171 3.5055381657553664 -19.235865487972728 0.0014605970650461537 10.412411079851132 0.05596812342758557 -5.594999255362531 -15.625267649832896 3.2141800864807757 0.02462842168714177 0.03744434799171084 0.015149882545400178 0.04167040338615776 4.661788005294754 0.035467834774010554 12.495084847176642 -8.221559949154033 6.898489630185891 0.04044439686421217 46.41167136802294 0.019408171138759645 -4.34125953263538 -14.753116256616455 -3.8230908228034037 0.01827519767116957 -0.04235273525117951 -0.03624715573684947 0.043927027382274234 -10.768881228248228 0.043173462919128686 
0.044835202822780085 0.016189421234447433 -0.03102207286312185 0.024325608649427417 -0.017937653379272517 -0.0011669621546336417 -3.1312232061042193 0.4042218016230974 -0.8426596522406374 -1.0460963365620919 3.5092890663177787 0.34180730943469406 -1.1746572767120094 -2.326535314652267 -2.2206857039232 -1.28855817071611 0.2928950757652445 -0.855607141239706 -1.1400519335231354 13.33960556045289 4.383647618562628 0.4266170866550333 0.44387358731786564 10.483857420980415 -0.9612325400229569 -14.426540043951634 0.8605296293063462 -6.303447356176022 2.3667627008612246 -15.34096024710757 66.73220696501743 18.388141191362436 -0.8591564629138289 -19.144100205919397 -2.7844963470827455 92.6136448623424 26.31905266721476 -0.5480128201215461 -7.621435462699977 4.549817811454699 -0.16797042845085902 -1.6101031105206836 -0.02846004661336523 0.04762993119625179 -56.25854374298441 0.01631483163783129 -0.007466549029968989 -56.22358790297673 -38.75371068436013 -0.022632094184576748 -0.037524641230309824 -0.03291172961070808 0.012055709943054388 0.03318296292463273 -0.008319258598249562 0.018088543136286862 0.012157008538398144 -36.6782459969996 -0.0119124741498311 -0.03749599009709808 0.023559041345674495 0.03453548671180721 0.035997268146335124 -0.02317145064273613 -0.0195549446231874 0.020953657873621703 -19.733900220333187 -0.0009538625056307217 0.030326456048045868 -0.012175836312535878 -0.01091793993145212 0.009421442369733938 -0.011128698758956508 -0.004331857663482793 -0.00619619820423904 24.013766325592766 0.02140610646387542 0.016765354981989597 28.85753379891781 0.03020617709055424 -0.021673521472651763 28.908687117915843 0.024713157392042145 -0.010037691451516067 9.385908339122246 2.125767337649664 12.86783118144202 -70.11184389763463 30.402903848617054 -11.646164046702287 -12.864031952901948 -10.858112174913774 -66.7381975219596 -13.60422397210402 -4.824788141225385 5.027108337995278 -0.4533010178080006 0.09956010852822947 -8.119145917996564 -0.011072753934108994 0.015798490115947226 44.60172326833029 -0.031136770255673712 -0.006382220949684688 44.55030354011366 12.421022702359844 -0.01193691304672631 0.021249361093421605 0.04582626867019722 -0.027104209641267422 -0.005522501554161177 -0.021960039149486413 0.007948534457844221 -0.02793922513620507 11.097369375243746 0.04290218124873288 -0.031730362851381935 0.03119179262939829 0.026825421435486857 -0.0018374297361547435 0.011280093386569748 0.017013190805022005 0.004381608368731326 4.810190950680267 0.02010077207944059 -0.03596633664272408 -0.04002466038197441 -0.03389364593821575 -0.006493132267461562 -0.021600163348429638 0.04246595674103426 -0.0432948816336053 -5.631996312030477 0.04564038388309708 0.0034196845914098964 -6.750755618007742 0.0055869424035719 -0.03598929754300593 -6.672872175506771 0.020482307579919094 0.021012881001740282 0.016025700001873838 0.004729416040819134 -0.020865424497096084 8.021115662090782 3.444932988335393 -19.21000221939961 0.00788820046530902 10.356880130606228 0.030843709671171546 -5.6662050389498315 -15.708401895261145 3.1743321648412928 9.595040917904655e-05 0.024402256211846555 0.021958945882078126 -0.044537513999097125 4.735636662945846 0.0029009533617347567 12.435953467428075 -8.204227384764497 6.8641464349279655 -0.004527171749535983 46.393200337494 0.01787984259171918 -4.316099299528227 -14.75729781313885 -3.866504384890531 0.04244649837326671 0.03101191424085911 0.03994433221552167 0.01034650973139071 -10.752206584540268 0.004387342807896071 
